# xmcd
#
# Track frame offsets:
#	150
#	13720
#	26987
#	39915
#	58445
#	69952
#	82965
#	98917
#	114327
#	130862
#	144592
#	160965
#	175787
#	187812
#	201102
#	214457
#	232440
#	246185
#
# Disc length: 3467
#
# Revision: 1
# Processed by: cddbd v1.5.1PL0 Copyright (c) Steve Scherf et al.
# Submitted via: VisiTrax 2.9.5.180 - For more info visit www.synapsa.com
# Normalized: r0:DSETVAR1
#
DISCID=030d8912
DTITLE=Various Artist - Easy Country [CD2]
DYEAR=1996
DGENRE=
TTITLE0=Glen Campbell - Southern Nights
TTITLE1=Larry Gatlin and The Gatlin Brothers Band - Houston (Means I'm One Day Closer To You)
TTITLE2=Eddie Rabbitt - Every Which Way But Loose
TTITLE3=Don Williams - I Believe In You
TTITLE4=Waylon Jennings with Willie Nelson - Mammas Don't Let Your Babies Grow Up To Be Cowboys
TTITLE5=Tom T. Hall - Faster Horses (The Cowboy And The Poet)
TTITLE6=Steve Wariner - All Roads Lead To You
TTITLE7=David Frizell and Shelley West - You're The Reason God Made Oklahoma
TTITLE8=The Oak Ridge Boys - Fancy Free
TTITLE9=Tammy Wynette - 'Til I Can Make It On My Own
TTITLE10=Ronnie Milsap - It Was Almost Like A Love Song
TTITLE11=Cristy Lane - One Day At A Time
TTITLE12=Gene Watson - Fourteen Carat Mind
TTITLE13=Margo Smith - Don't Break The Heart That Loves You
TTITLE14=Conway Twitty - Slow Hand
TTITLE15=Eddie Rabbitt and Crystal Gayle - You And I
TTITLE16=Charley Pride - Never Been So Loved (In All My Life)
TTITLE17=Dolly Parton - I Will Always Love You
EXTD=
EXTT0=
EXTT1=
EXTT2=
EXTT3=
EXTT4=
EXTT5=
EXTT6=
EXTT7=
EXTT8=
EXTT9=
EXTT10=
EXTT11=
EXTT12=
EXTT13=
EXTT14=
EXTT15=
EXTT16=
EXTT17=
PLAYORDER=
